<svg height="18.061" viewBox="0 0 18.205 18.061" width="18.205" xmlns="http://www.w3.org/2000/svg"><path d="m-3610.494-1431.8c-1.77-.044-3.141-.045-4.509-.12a4.935 4.935 0 0 1 -4.061-2.146 5.077 5.077 0 0 1 -.861-2.833c-.03-2.65-.062-5.3.006-7.952a4.766 4.766 0 0 1 2.589-4.372 5.532 5.532 0 0 1 2.573-.622q3.9-.034 7.8 0a5.547 5.547 0 0 1 2.382.546 4.61 4.61 0 0 1 2.687 3.919c.122 1.231.124 2.477.13 3.716.008 1.57-.02 3.141-.062 4.712a5.4 5.4 0 0 1 -.667 2.559 4.594 4.594 0 0 1 -3.732 2.4c-1.549.151-3.114.149-4.275.193zm-.358-1.633c1.3-.031 2.643-.041 3.981-.1a3.261 3.261 0 0 0 3.388-3.223c.071-.8.1-1.6.092-2.4-.016-1.98-.019-3.961-.11-5.938a3.077 3.077 0 0 0 -2.585-3.006 6.436 6.436 0 0 0 -1.339-.139c-2.569 0-5.141-.029-7.707.068a3.115 3.115 0 0 0 -3.124 3.109c-.09 1.165-.111 2.338-.107 3.507.005 1.63.031 3.26.11 4.887a3.094 3.094 0 0 0 1.361 2.522 3.8 3.8 0 0 0 2.042.615c1.319.051 2.64.069 3.998.1z" transform="translate(3619.96 1449.858)"/><path d="m-3541.988-1377.4a4.653 4.653 0 0 1 4.681 4.783 4.669 4.669 0 0 1 -4.789 4.494 4.658 4.658 0 0 1 -4.577-4.737 4.67 4.67 0 0 1 4.685-4.54zm.01 1.622a3.038 3.038 0 0 0 -3.063 3.036 3.04 3.04 0 0 0 3.038 3 3.046 3.046 0 0 0 3.067-3.035 3.05 3.05 0 0 0 -3.042-3.003z" transform="translate(3551.075 1381.752)"/><path d="m-3403.452-1397.473a1.056 1.056 0 0 1 -1.1 1.059 1.066 1.066 0 0 1 -1.074-1.088 1.085 1.085 0 0 1 1.1-1.068 1.074 1.074 0 0 1 1.074 1.097z" transform="translate(3418.495 1401.647)"/></svg>